<?xml version="1.0" encoding="UTF-8"?>
<svg version="1.1" xmlns="http://www.w3.org/2000/svg" width="256" height="256">
<path d="M0 0 C5.9273178 5.77913486 7.7248072 12.82904097 9.75 20.625 C10.1521875 22.10129883 10.1521875 22.10129883 10.5625 23.60742188 C11.66343759 27.73874634 12.5 31.13059249 12.5 35.4375 C13.59618652 35.54400879 14.69237305 35.65051758 15.82177734 35.76025391 C21.1375419 36.42904194 26.19912407 37.83735913 31.3515625 39.2734375 C32.36922699 39.55345612 33.38689148 39.83347473 34.43539429 40.12197876 C36.57586502 40.71264529 38.71555409 41.30615105 40.85449219 41.90234375 C44.11937076 42.81093343 47.38755915 43.70679767 50.65625 44.6015625 C52.74239872 45.17892486 54.82834345 45.75702489 56.9140625 46.3359375 C57.88606598 46.60167572 58.85806946 46.86741394 59.85952759 47.14120483 C67.18984119 49.19929689 72.99541444 50.93087641 77.5 57.4375 C81.78160144 66.00070287 77.0809549 77.47735337 74.45874023 85.87011719 C74.04217163 87.24925293 74.04217163 87.24925293 73.6171875 88.65625 C73.22442627 89.8927832 73.22442627 89.8927832 72.82373047 91.15429688 C72.41455605 94.04011825 73.01838016 94.95420394 74.5 97.4375 C75.70857692 98.80677126 76.97401577 100.12680332 78.27539062 101.40820312 C79.43669495 102.55959778 79.43669495 102.55959778 80.62145996 103.73425293 C81.87618103 104.96407898 81.87618103 104.96407898 83.15625 106.21875 C84.01432251 107.06924927 84.87239502 107.91974854 85.75646973 108.79602051 C88.49957778 111.51468441 91.24898681 114.22683693 94 116.9375 C97.62029732 120.5046971 101.23401222 124.07837133 104.84375 127.65625 C106.09847107 128.88607605 106.09847107 128.88607605 107.37854004 130.14074707 C108.15274292 130.90834351 108.9269458 131.67593994 109.72460938 132.46679688 C110.40696655 133.13868042 111.08932373 133.81056396 111.7923584 134.50280762 C114.98037733 138.11471069 115.80808523 141.03478538 115.875 145.8125 C115.90335938 146.72773438 115.93171875 147.64296875 115.9609375 148.5859375 C114.7331509 156.18156645 107.57837759 161.64212654 102.38867188 166.80761719 C101.00754967 168.19399635 101.00754967 168.19399635 99.598526 169.60838318 C97.08463274 172.13135704 94.56449923 174.64800829 92.04288673 177.16326427 C89.4005476 179.80052397 86.76310961 182.44267797 84.12487793 185.08404541 C79.69670536 189.51585068 75.26434554 193.94343528 70.82958984 198.36865234 C65.70436373 203.48298181 60.58640036 208.60449444 55.47212362 213.72977138 C51.07569797 218.1352737 46.67538597 222.53686572 42.27180338 226.93521428 C39.6438828 229.56001899 37.01732717 232.18615124 34.39427185 234.81581879 C31.47232599 237.7446162 28.54227446 240.66517065 25.61132812 243.58496094 C24.74367325 244.45666428 23.87601837 245.32836761 22.98207092 246.22648621 C22.18300827 247.01990921 21.38394562 247.81333221 20.56066895 248.63079834 C19.52314861 249.6671876 19.52314861 249.6671876 18.46466827 250.72451401 C14.82435278 253.89848976 11.91952805 254.74534975 7.125 254.8125 C6.20976562 254.84085937 5.29453125 254.86921875 4.3515625 254.8984375 C-2.11149476 253.85372413 -6.72606679 248.50880526 -11.17626953 244.05175781 C-12.1335495 243.10455368 -12.1335495 243.10455368 -13.11016846 242.13821411 C-15.20634908 240.06094327 -17.29498947 237.97629355 -19.3828125 235.890625 C-20.84424512 234.43562426 -22.30582581 232.98077223 -23.76754761 231.52606201 C-26.82565144 228.47991275 -29.87961373 225.42967848 -32.93115234 222.37695312 C-36.83260192 218.47530026 -40.74763185 214.58759152 -44.66635323 210.70329666 C-47.68788447 207.70405217 -50.70023156 204.69571091 -53.71010971 201.68477631 C-55.14932515 200.2479134 -56.59176746 198.81427483 -58.03754044 197.38401031 C-60.06221255 195.37903648 -62.07369804 193.36165865 -64.08251953 191.34082031 C-64.6758609 190.75871796 -65.26920227 190.1766156 -65.88052368 189.57687378 C-69.33336996 186.07156852 -71.64395572 182.70584588 -73.65387154 178.20644569 C-74.54465971 176.19470386 -74.54465971 176.19470386 -76.51464844 173.75830078 C-79.58542985 168.6219544 -80.77252019 163.0680478 -82.265625 157.3046875 C-82.61911306 155.97403467 -82.97362121 154.64365247 -83.32907104 153.31352234 C-84.28415806 149.72833685 -85.22553022 146.13968598 -86.16391754 142.55009842 C-87.14656915 138.79844257 -88.1398022 135.04959146 -89.13232422 131.30053711 C-90.35859598 126.6666312 -91.58383489 122.0324665 -92.80380249 117.39689636 C-95.3730686 107.64180788 -97.99580895 97.90284479 -100.66622925 88.17498016 C-101.79048709 84.0743401 -102.90655207 79.97146122 -104.0228653 75.86865234 C-104.90430657 72.63190568 -105.79222764 69.39726492 -106.68908691 66.16473389 C-107.68429865 62.57310572 -108.66051243 58.97679354 -109.6328125 55.37890625 C-109.92566132 54.34102463 -110.21851013 53.30314301 -110.52023315 52.23381042 C-112.62983722 44.31764341 -114.37884178 35.64610559 -110.9375 27.9375 C-106.0252213 22.89926543 -100.26306145 20.79262573 -93.56445312 19.08740234 C-92.80414291 18.88520584 -92.0438327 18.68300934 -91.26048279 18.47468567 C-88.76979587 17.81478774 -86.27566827 17.16907292 -83.78125 16.5234375 C-82.03658816 16.06401727 -80.29216616 15.60368536 -78.54797363 15.14248657 C-73.96958662 13.9343711 -69.38817084 12.73817012 -64.80596924 11.5446167 C-60.15400436 10.33085387 -55.5048052 9.10659779 -50.85546875 7.8828125 C-45.62400666 6.50609863 -40.39231493 5.13035283 -35.1583252 3.76327515 C-34.36011856 3.55459305 -33.56191193 3.34591095 -32.73951721 3.13090515 C-31.26206066 2.74480144 -29.78444407 2.35930934 -28.30662537 1.97459412 C-25.08964403 1.13349315 -21.88982312 0.25942156 -18.69763184 -0.67221069 C-12.41209051 -2.42224025 -6.00021168 -2.67866593 0 0 Z M-18.95874023 7.37182617 C-20.21821976 7.69846756 -20.21821976 7.69846756 -21.50314331 8.03170776 C-24.27461605 8.75371942 -27.0415915 9.49152459 -29.80859375 10.23046875 C-31.73747136 10.73860385 -33.6665155 11.2461072 -35.59571838 11.75300598 C-39.63839736 12.81792263 -43.67888593 13.89070361 -47.71801758 14.96899414 C-52.88677512 16.34814218 -58.06052265 17.70737429 -63.23609829 19.06067944 C-67.22145862 20.10518349 -71.20391679 21.16041964 -75.18559456 22.21886635 C-77.09163429 22.72413779 -78.99856702 23.22605326 -80.90640068 23.72450829 C-83.57792716 24.42418396 -86.24519228 25.13828145 -88.91186523 25.85620117 C-89.69595261 26.0584581 -90.48003998 26.26071503 -91.28788757 26.46910095 C-97.22715651 28.09332251 -101.96830963 30.13996445 -105.5 35.4375 C-105.40816727 37.38194037 -105.40816727 37.38194037 -104.8006134 39.4516449 C-104.59856104 40.25165358 -104.39650867 41.05166225 -104.18833351 41.87591362 C-103.96118345 42.72123713 -103.73403339 43.56656063 -103.5 44.4375 C-103.18254601 45.68200267 -103.18254601 45.68200267 -102.85867882 46.9516468 C-102.15141735 49.70912961 -101.42278242 52.46032468 -100.69018555 55.21118164 C-100.41507141 56.24993439 -100.13995728 57.28868713 -99.85650635 58.35891724 C-98.9518421 61.77234604 -98.04444236 65.18503983 -97.13671875 68.59765625 C-96.50130866 70.99025417 -95.86595911 73.38286816 -95.23066711 75.77549744 C-93.89962424 80.78646886 -92.56708843 85.79704056 -91.23364258 90.80737305 C-89.53556821 97.18867938 -87.84234974 103.5712628 -86.150424 109.9542017 C-84.83930956 114.89747267 -83.52498301 119.83988553 -82.20978737 124.78207207 C-81.58479578 127.13259826 -80.96090789 129.48341823 -80.33820152 131.83455086 C-78.66895201 138.13426366 -76.98220792 144.42845506 -75.25075912 150.71138382 C-74.76408871 152.47855526 -74.28170446 154.24691491 -73.80441666 156.01664352 C-73.18630464 158.29008059 -72.54328861 160.55460896 -71.88989258 162.81811523 C-71.54485184 164.04191391 -71.1998111 165.26571259 -70.84431458 166.52659607 C-69.23944078 170.00170042 -68.02408242 171.01581206 -64.5 172.4375 C-62.42025877 172.54436994 -62.42025877 172.54436994 -60.31542969 171.91772461 C-59.44059937 171.70622772 -58.56576904 171.49473083 -57.66442871 171.27682495 C-56.0980365 170.8613591 -56.0980365 170.8613591 -54.5 170.4375 C-53.20035544 170.10802588 -51.90040657 169.77975071 -50.60021973 169.4524231 C-45.87590681 168.25189498 -41.16447281 167.00418437 -36.453125 165.75390625 C-34.71061167 165.29305065 -32.96807795 164.83227215 -31.2255249 164.37156677 C-27.59068027 163.40966208 -23.95652103 162.44521474 -20.32275391 161.47924805 C-15.67545502 160.24432003 -11.02585769 159.01829357 -6.37562943 157.79444981 C-2.78329909 156.84751828 0.80743113 155.89462905 4.39774323 154.94007683 C6.11152298 154.48545269 7.825869 154.03295741 9.54079437 153.58267403 C11.93743154 152.95270872 14.33170547 152.31442137 16.72558594 151.67407227 C17.42701218 151.49163467 18.12843842 151.30919708 18.85112 151.12123108 C26.81854804 148.98974682 26.81854804 148.98974682 32.5 143.4375 C32.10707114 138.63703426 30.9859782 134.09148515 29.75683594 129.44384766 C29.58225105 128.77935325 29.40766617 128.11485884 29.22779083 127.43022823 C28.65037713 125.23633807 28.06738451 123.04397162 27.484375 120.8515625 C27.07222478 119.28979973 26.66042838 117.72794355 26.2489624 116.16600037 C25.14828617 111.99205628 24.04269872 107.81942968 22.93563843 103.64717484 C21.7920369 99.3361007 20.65104268 95.02433646 19.50976562 90.71264648 C18.13830284 85.53156803 16.76650265 80.35058071 15.39282227 75.17008972 C12.70186804 65.01647866 10.04571581 54.85475217 7.421875 44.68359375 C6.55085198 41.32670276 5.67865576 37.97011976 4.80578613 34.6137085 C4.27174854 32.55008722 3.74199092 30.48535326 3.2166748 28.41949463 C2.49941297 25.60083726 1.76716848 22.78648985 1.03125 19.97265625 C0.83102234 19.16791367 0.63079468 18.36317108 0.42449951 17.53404236 C-0.76767409 13.04766135 -2.02260688 9.71272827 -5.5 6.4375 C-10.20059573 4.76858536 -14.32165066 6.11905724 -18.95874023 7.37182617 Z M15.5 44.4375 C18.00672724 55.37137019 20.71130323 66.23347143 23.62683868 77.06527901 C24.28591665 79.51688616 24.94043984 81.96966989 25.59368896 84.4228363 C27.44712924 91.38279759 29.30290855 98.34209546 31.17480469 105.29711914 C32.32914397 109.5873605 33.4737571 113.88009603 34.61211395 118.17460442 C35.04389031 119.79616767 35.47923593 121.41678522 35.91834259 123.03637886 C36.5306071 125.2960828 37.1303836 127.55877348 37.72753906 129.82250977 C37.90826965 130.47769592 38.08900024 131.13288208 38.27520752 131.80792236 C39.6904937 137.25913356 40.94951896 144.0512687 38 149.1875 C33.8748736 155.2876801 26.14389948 157.07521484 19.33984375 158.81933594 C18.56814346 159.02474503 17.79644318 159.23015411 17.00135803 159.44178772 C14.4821888 160.11014834 11.95997114 160.76609769 9.4375 161.421875 C7.67753175 161.88621593 5.91776901 162.35133639 4.15820312 162.81719971 C-0.44941855 164.0348943 -5.05973684 165.24204899 -9.67071533 166.44696045 C-14.38503015 167.68088951 -19.0966923 168.92486221 -23.80859375 170.16796875 C-33.03650727 172.60093108 -42.26730359 175.02275652 -51.5 177.4375 C-48.81935722 180.11814278 -45.86095823 180.64243719 -42.29980469 181.6081543 C-41.18728584 181.91823929 -41.18728584 181.91823929 -40.05229187 182.23458862 C-37.5940707 182.9174622 -35.13319357 183.5901014 -32.671875 184.26171875 C-30.96268258 184.73184257 -29.25355666 185.20220821 -27.54449463 185.67280579 C-23.95786941 186.658462 -20.36979361 187.63862392 -16.78076172 188.61547852 C-12.18609985 189.86689781 -7.59642396 191.13563584 -3.00782394 192.40907574 C0.52266526 193.38607775 4.05616074 194.35182502 7.59059906 195.31443214 C9.28371091 195.77740164 10.97575094 196.24430977 12.66666412 196.7152462 C15.035495 197.37359021 17.40807959 198.01616445 19.78222656 198.6550293 C20.47751968 198.85184799 21.17281281 199.04866669 21.88917542 199.25144958 C26.07368225 200.35599863 29.36109353 200.85108863 33.5 199.4375 C36.67225945 195.66391605 37.6578576 190.97514534 38.88500977 186.28710938 C39.10347061 185.47774429 39.32193146 184.66837921 39.54701233 183.83448792 C40.26912013 181.15197718 40.9802447 178.46668152 41.69140625 175.78125 C42.20056439 173.8814491 42.71041972 171.98183493 43.22093201 170.08239746 C44.57028266 165.05467514 45.91043616 160.02454607 47.24859619 154.99383545 C48.57264086 150.02184167 49.90461637 145.05197592 51.23632812 140.08203125 C52.80569591 134.2247012 54.37356953 128.36699601 55.93325806 122.50708008 C58.42019182 113.16846825 60.93093199 103.83780212 63.50732422 94.5234375 C64.20818763 91.97776373 64.90858401 89.43196178 65.60896111 86.88615417 C66.25864132 84.53639289 66.91778546 82.18942748 67.57728577 79.84240723 C67.96858195 78.42176101 68.35943218 77.00099185 68.74975586 75.58007812 C69.08953964 74.36259888 69.42932343 73.14511963 69.77940369 71.89074707 C70.53417094 68.27374575 70.7572475 65.12134613 70.5 61.4375 C66.58676815 56.62493442 60.34182049 55.69540852 54.58203125 54.203125 C53.00164314 53.77879181 53.00164314 53.77879181 51.389328 53.34588623 C48.03335002 52.44816433 44.67304086 51.56796796 41.3125 50.6875 C39.0394254 50.08050507 36.76663522 49.47244401 34.49414062 48.86328125 C30.34901932 47.7585204 26.20387675 46.6539853 22.05395508 45.56738281 C21.22076248 45.34850403 20.38756989 45.12962524 19.52912903 44.90411377 C17.52216004 44.36279716 17.52216004 44.36279716 15.5 44.4375 Z M68.5 104.4375 C68.0401899 106.16518112 68.0401899 106.16518112 67.5710907 107.92776489 C64.67974273 118.78823433 61.78154479 129.64685546 58.87665081 140.50370979 C57.38347974 146.08522057 55.89271954 151.66735196 54.4074707 157.25097656 C52.97372624 162.64061868 51.53364705 168.02853151 50.0891819 173.41530991 C49.53952452 175.46956076 48.99214266 177.52442189 48.44708824 179.57989883 C47.68259479 182.46133305 46.90999984 185.34048063 46.13549805 188.21923828 C45.91251541 189.06728531 45.68953278 189.91533234 45.45979309 190.78907776 C43.61582396 197.58765867 42.07025247 202.96479414 35.70703125 206.7734375 C29.78187302 208.55622847 23.73229574 207.27936672 17.91796875 205.671875 C17.20177872 205.48222672 16.48558868 205.29257843 15.74769592 205.09718323 C13.39159537 204.47027186 11.03966968 203.82898734 8.6875 203.1875 C7.0317636 202.74433251 5.37583498 202.30188266 3.71972656 201.86010742 C-5.70577225 199.33420271 -15.10457759 196.71554234 -24.49609375 194.06640625 C-25.48096268 193.78914703 -26.4658316 193.51188782 -27.48054504 193.22622681 C-32.31042284 191.86558196 -37.13746018 190.49607368 -41.96020508 189.11035156 C-43.71820978 188.61114518 -45.47626387 188.11211269 -47.234375 187.61328125 C-48.04406235 187.37734756 -48.85374969 187.14141388 -49.68797302 186.89833069 C-53.63989882 185.53039628 -53.63989882 185.53039628 -57.5 186.4375 C-56.91349167 186.95050659 -56.32698334 187.46351318 -55.72270203 187.99206543 C-49.35802432 193.6309305 -43.33454631 199.53646351 -37.39686012 205.61830139 C-34.67092272 208.4062885 -31.9285182 211.17804535 -29.18945312 213.953125 C-25.73174401 217.45880493 -22.27896918 220.96902732 -18.84106445 224.49414062 C-16.03504107 227.37048309 -13.21452605 230.23188722 -10.38385582 233.08396912 C-9.31512971 234.16623785 -8.25182307 235.25388752 -7.19425392 236.34706116 C-5.71845477 237.87125309 -4.22483815 239.37562938 -2.72583008 240.87695312 C-1.88329178 241.7358313 -1.04075348 242.59470947 -0.17268372 243.47961426 C3.32267338 246.04015286 5.14768248 246.70116396 9.5 246.4375 C12.57185481 244.5112442 14.97437218 242.02095371 17.5 239.4375 C18.56205564 238.40987517 18.56205564 238.40987517 19.64556694 237.36149025 C22.00435481 235.07779911 24.3309176 232.764514 26.65405273 230.44458008 C27.531436 229.57216171 28.40881927 228.69974335 29.31278992 227.80088806 C31.69448166 225.43120664 34.07391049 223.05930569 36.45183825 220.68585038 C37.93960322 219.20103369 39.42794595 217.71679845 40.91646004 216.23273277 C45.58050818 211.58230905 50.24258812 206.92992574 54.9017691 202.2746256 C60.2694932 196.91139879 65.6437285 191.5548095 71.02361339 186.2037819 C75.19380247 182.05518529 79.35823227 177.90086507 83.51830822 173.7421276 C85.99900401 171.26247968 88.48206935 168.78532091 90.97115898 166.31409645 C93.73966185 163.56508716 96.49619187 160.80426505 99.25170898 158.04223633 C100.07711182 157.22604828 100.90251465 156.40986023 101.75292969 155.56893921 C102.50001694 154.81628281 103.24710419 154.0636264 104.01683044 153.28816223 C104.66920905 152.63725019 105.32158766 151.98633814 105.99373531 151.31570148 C107.61925425 149.2887987 108.22260179 148.00974864 108.5 145.4375 C106.80559779 141.92741669 104.61448748 139.30285968 101.87060547 136.56518555 C101.15331268 135.84481613 100.4360199 135.12444672 99.69699097 134.38224792 C98.92815582 133.6205983 98.15932068 132.85894867 97.3671875 132.07421875 C96.5747464 131.28223587 95.7823053 130.49025299 94.96585083 129.67427063 C93.29551923 128.00695318 91.62276479 126.34205987 89.94775391 124.67944336 C87.37211639 122.12213691 84.80464524 119.55684377 82.23828125 116.99023438 C80.61505596 115.37192164 78.99137397 113.75406682 77.3671875 112.13671875 C76.59430389 111.36494797 75.82142029 110.59317719 75.02511597 109.79801941 C73.95863327 108.74110649 73.95863327 108.74110649 72.87060547 107.6628418 C71.92820511 106.72615913 71.92820511 106.72615913 70.96676636 105.77055359 C69.70699917 104.32540492 69.70699917 104.32540492 68.5 104.4375 Z " fill="#3848AB" transform="translate(126.5,1.5625)"/>
</svg>
